<svg xmlns="http://www.w3.org/2000/svg" xmlns:xlink="http://www.w3.org/1999/xlink" width="500" zoomAndPan="magnify" viewBox="0 0 375 374.999991" height="500" preserveAspectRatio="xMidYMid meet" version="1.0"><defs><clipPath id="359c51a867"><path d="M 48.890625 0 L 326.109375 0 C 339.078125 0 351.511719 5.152344 360.679688 14.320312 C 369.847656 23.488281 375 35.921875 375 48.890625 L 375 326.109375 C 375 339.078125 369.847656 351.511719 360.679688 360.679688 C 351.511719 369.847656 339.078125 375 326.109375 375 L 48.890625 375 C 35.921875 375 23.488281 369.847656 14.320312 360.679688 C 5.152344 351.511719 0 339.078125 0 326.109375 L 0 48.890625 C 0 35.921875 5.152344 23.488281 14.320312 14.320312 C 23.488281 5.152344 35.921875 0 48.890625 0 Z M 48.890625 0 " clip-rule="nonzero"/></clipPath></defs><g clip-path="url(#359c51a867)"><rect x="-37.5" width="450" fill="#1d93ab" y="-37.499999" height="449.999989" fill-opacity="1"/></g><path fill="#ffffff" d="M 113.300781 266.488281 L 116.097656 269.253906 L 116.378906 269.535156 C 125.078125 278.542969 124.984375 293.054688 116.097656 301.9375 C 107.214844 310.824219 92.703125 310.917969 83.695312 302.21875 L 83.414062 301.9375 L 80.617188 299.171875 L 73.007812 291.53125 C 64.027344 282.550781 64.027344 267.855469 73.007812 258.847656 C 81.984375 249.867188 96.710938 249.867188 105.691406 258.847656 Z M 267.46875 140.039062 L 270.171875 137.335938 L 273.277344 134.226562 L 301.765625 105.738281 C 310.746094 96.757812 310.746094 82.0625 301.765625 73.054688 C 292.757812 64.074219 278.0625 64.074219 269.082031 73.054688 L 240.59375 101.542969 L 237.484375 104.648438 L 234.78125 107.351562 L 218.441406 123.695312 C 209.460938 132.675781 209.460938 147.371094 218.441406 156.378906 L 234.78125 172.722656 L 237.703125 175.613281 L 269.300781 207.210938 C 278.28125 216.1875 292.976562 216.1875 301.984375 207.210938 C 310.964844 198.230469 310.964844 183.503906 301.984375 174.523438 L 270.386719 142.925781 Z M 74.3125 73.269531 L 74.3125 73.238281 C 83.289062 64.261719 98.015625 64.261719 106.996094 73.238281 L 301.550781 267.824219 C 310.558594 276.804688 310.558594 291.53125 301.550781 300.507812 C 292.570312 309.488281 277.875 309.488281 268.867188 300.507812 L 74.3125 105.925781 C 65.332031 96.945312 65.332031 82.25 74.3125 73.269531 Z M 74.03125 166.414062 C 83.011719 157.4375 97.707031 157.4375 106.714844 166.414062 L 208.40625 268.105469 C 217.382812 277.082031 217.382812 291.808594 208.40625 300.789062 C 199.394531 309.769531 184.699219 309.769531 175.71875 300.789062 L 144.125 269.191406 L 96.183594 221.253906 L 74.03125 199.101562 C 65.050781 190.121094 65.050781 175.394531 74.03125 166.414062 Z M 74.03125 166.414062 " fill-opacity="1" fill-rule="evenodd"/></svg>