<svg xmlns="http://www.w3.org/2000/svg" xmlns:xlink="http://www.w3.org/1999/xlink" width="40" zoomAndPan="magnify" viewBox="0 0 30 30.000001" height="40" preserveAspectRatio="xMidYMid meet" version="1.0"><defs><clipPath id="6c4aa9949a"><path d="M 0.484375 0 L 29.515625 0 L 29.515625 29.03125 L 0.484375 29.03125 Z M 0.484375 0 " clip-rule="nonzero"/></clipPath><clipPath id="56c047b3a4"><path d="M 4.113281 0 L 25.886719 0 C 26.847656 0 27.773438 0.382812 28.453125 1.0625 C 29.132812 1.742188 29.515625 2.667969 29.515625 3.628906 L 29.515625 25.402344 C 29.515625 27.40625 27.890625 29.03125 25.886719 29.03125 L 4.113281 29.03125 C 3.152344 29.03125 2.226562 28.648438 1.546875 27.96875 C 0.867188 27.289062 0.484375 26.367188 0.484375 25.402344 L 0.484375 3.628906 C 0.484375 1.625 2.109375 0 4.113281 0 Z M 4.113281 0 " clip-rule="nonzero"/></clipPath><clipPath id="10877eb3cb"><path d="M 5.445312 5.195312 L 24.316406 5.195312 L 24.316406 24 L 5.445312 24 Z M 5.445312 5.195312 " clip-rule="nonzero"/></clipPath></defs><g clip-path="url(#6c4aa9949a)"><g clip-path="url(#56c047b3a4)"><path fill="#1d93ab" d="M 0.484375 0 L 29.515625 0 L 29.515625 29.03125 L 0.484375 29.03125 Z M 0.484375 0 " fill-opacity="1" fill-rule="nonzero"/></g></g><g clip-path="url(#10877eb3cb)"><path fill="#ffffff" d="M 9.257812 20.625 L 9.472656 20.839844 L 9.496094 20.859375 C 10.167969 21.558594 10.160156 22.679688 9.472656 23.367188 C 8.785156 24.054688 7.664062 24.0625 6.964844 23.390625 L 6.945312 23.367188 L 6.726562 23.152344 L 6.140625 22.5625 C 5.445312 21.867188 5.445312 20.730469 6.140625 20.03125 C 6.835938 19.339844 7.972656 19.339844 8.667969 20.03125 Z M 21.1875 10.839844 L 23.84375 8.183594 C 24.535156 7.488281 24.535156 6.351562 23.84375 5.65625 C 23.144531 4.960938 22.007812 4.960938 21.3125 5.65625 L 17.394531 9.574219 C 16.699219 10.269531 16.699219 11.40625 17.394531 12.105469 L 18.660156 13.367188 L 18.882812 13.59375 L 21.328125 16.035156 C 22.023438 16.730469 23.160156 16.730469 23.859375 16.035156 C 24.554688 15.34375 24.554688 14.203125 23.859375 13.507812 L 21.414062 11.0625 Z M 6.238281 5.671875 L 6.238281 5.667969 C 6.933594 4.976562 8.074219 4.976562 8.769531 5.667969 L 23.824219 20.726562 C 24.523438 21.421875 24.523438 22.5625 23.824219 23.257812 C 23.128906 23.953125 21.992188 23.953125 21.296875 23.257812 L 6.238281 8.199219 C 5.546875 7.503906 5.546875 6.367188 6.238281 5.671875 Z M 6.21875 12.878906 C 6.914062 12.183594 8.050781 12.183594 8.746094 12.878906 L 16.617188 20.75 C 17.3125 21.445312 17.3125 22.582031 16.617188 23.277344 C 15.917969 23.972656 14.78125 23.972656 14.085938 23.277344 L 11.644531 20.832031 L 7.933594 17.125 L 6.21875 15.410156 C 5.523438 14.714844 5.523438 13.574219 6.21875 12.878906 Z M 6.21875 12.878906 " fill-opacity="1" fill-rule="evenodd"/></g></svg>