<?xml version="1.0" encoding="UTF-8"?>
<svg width="1200pt" height="1200pt" version="1.1" viewBox="0 0 1200 1200" xmlns="http://www.w3.org/2000/svg">
 <g fill="#333">
  <path d="m600 150c-20.711 0-37.5 16.789-37.5 37.5s16.789 37.5 37.5 37.5h187.5c62.129 0 112.5 50.367 112.5 112.5v525c0 62.129-50.371 112.5-112.5 112.5h-187.5c-20.711 0-37.5 16.793-37.5 37.5s16.789 37.5 37.5 37.5h187.5c103.55 0 187.5-83.949 187.5-187.5v-525c0-103.55-83.949-187.5-187.5-187.5z"/>
  <path d="m439.02 476.52c14.645-14.645 14.645-38.387 0-53.031s-38.387-14.645-53.031 0l-150 150c-14.645 14.645-14.645 38.387 0 53.031l150 150c14.645 14.641 38.387 14.641 53.031 0 14.645-14.648 14.645-38.391 0-53.035l-85.98-85.984h321.96c20.711 0 37.5-16.789 37.5-37.5s-16.789-37.5-37.5-37.5h-321.96z"/>
 </g>
</svg>
