<?xml version="1.0" encoding="UTF-8"?>
<svg width="1200pt" height="1200pt" version="1.1" viewBox="0 0 1200 1200" xmlns="http://www.w3.org/2000/svg">
 <defs>
  <clipPath id="a">
   <path d="m222.14 222.14h755.71v755.71h-755.71z"/>
  </clipPath>
 </defs>
 <g clip-path="url(#a)">
  <path d="m801.51 768.44 165.59-144.88c13.086-11.449 14.414-31.344 2.9609-44.43-0.91797-1.0547-1.9102-2.043-2.9609-2.9648l-166.6-145.76c-12.512-10.945-31.375-10.281-43.082 1.5156l-0.16016 0.16406c-11.023 11.105-10.957 29.043 0.14844 40.062 0.33984 0.33594 0.68359 0.66406 1.0391 0.98047l106.18 95.246h-421.98c-17.391 0-31.488 14.102-31.488 31.488 0 17.391 14.098 31.488 31.488 31.488h421.98l-104.75 90.754c-12.734 11.035-14.113 30.301-3.082 43.039 0.15625 0.17578 0.3125 0.35547 0.47266 0.52734l0.20703 0.23047c11.539 12.711 31.129 13.836 44.047 2.5352zm-106.86-388.86c-17.398 0-31.5-14.105-31.5-31.5v-62.965h-346.52c-17.391 0-31.488 14.098-31.488 31.488v566.79c0 17.391 14.098 31.488 31.488 31.488h346.52v-62.965c0-17.395 14.102-31.5 31.5-31.5 17.398 0 31.5 14.105 31.5 31.5v62.965c-0.19922 31.488-31.688 62.977-63 62.977h-378.01c-31.5 0-63-31.488-63-62.977v-629.76c0-31.488 31.5-62.977 63-62.977h377.83c31.488 0 62.977 32.141 62.977 62.977l0.13281 62.965c0.039062 17.359-14.008 31.461-31.367 31.5h-0.066406z" fill="#333" fill-rule="evenodd"/>
 </g>
</svg>
